<svg width="333" height="80" viewBox="0 0 333 80" fill="none" xmlns="http://www.w3.org/2000/svg">
<path fill-rule="evenodd" clip-rule="evenodd" d="M40 0C17.9086 0 0 17.9086 0 40C0 62.0914 17.9086 80 40 80C62.0914 80 80 62.0914 80 40C80 17.9086 62.0914 0 40 0ZM67.0544 40L40 12.9456L12.9457 40L18.2336 45.2879L35.8804 27.6411V62.8117L44.1197 62.8117L44.1812 27.7026L61.7665 45.2879L67.0544 40Z" fill="#1A5AFF"/>
<path d="M100 71.6612V57.0605H105.049C106.151 57.0605 107.064 57.2672 107.787 57.6807C108.511 58.0942 109.053 58.6598 109.413 59.3775C109.772 60.0904 109.952 60.8936 109.952 61.7872C109.952 62.6855 109.77 63.4934 109.406 64.2111C109.046 64.9241 108.502 65.4896 107.774 65.9079C107.05 66.3214 106.139 66.5281 105.042 66.5281H101.57V64.6603H104.848C105.544 64.6603 106.109 64.5367 106.543 64.2895C106.976 64.0376 107.294 63.6954 107.497 63.2629C107.7 62.8304 107.801 62.3385 107.801 61.7872C107.801 61.2358 107.7 60.7463 107.497 60.3185C107.294 59.8908 106.974 59.5557 106.536 59.3133C106.102 59.0709 105.531 58.9497 104.82 58.9497H102.137V71.6612H100Z" fill="black"/>
<path d="M130.278 71.6612V57.0605H135.326C136.424 57.0605 137.334 57.2553 138.058 57.6451C138.787 58.0348 139.331 58.5742 139.69 59.2634C140.05 59.9478 140.23 60.7392 140.23 61.6375C140.23 62.531 140.048 63.3176 139.683 63.9972C139.324 64.6722 138.78 65.1973 138.051 65.5728C137.327 65.9483 136.417 66.136 135.319 66.136H131.495V64.2396H135.126C135.817 64.2396 136.38 64.1375 136.813 63.9331C137.251 63.7287 137.572 63.4317 137.775 63.0419C137.977 62.6522 138.079 62.184 138.079 61.6375C138.079 61.0861 137.975 60.6085 137.768 60.2045C137.565 59.8005 137.244 59.4915 136.806 59.2777C136.373 59.059 135.804 58.9497 135.098 58.9497H132.415V71.6612H130.278ZM137.27 65.0738L140.769 71.6612H138.335L134.904 65.0738H137.27Z" fill="black"/>
<path d="M172.954 64.3608C172.954 65.9198 172.677 67.2601 172.124 68.3818C171.571 69.4987 170.812 70.3589 169.849 70.9626C168.89 71.5614 167.799 71.8608 166.577 71.8608C165.351 71.8608 164.256 71.5614 163.292 70.9626C162.333 70.3589 161.577 69.4963 161.024 68.3746C160.471 67.2529 160.194 65.915 160.194 64.3608C160.194 62.8019 160.471 61.464 161.024 60.3471C161.577 59.2254 162.333 58.3651 163.292 57.7663C164.256 57.1626 165.351 56.8608 166.577 56.8608C167.799 56.8608 168.89 57.1626 169.849 57.7663C170.812 58.3651 171.571 59.2254 172.124 60.3471C172.677 61.464 172.954 62.8019 172.954 64.3608ZM170.838 64.3608C170.838 63.1726 170.651 62.1722 170.277 61.3594C169.909 60.5419 169.401 59.9241 168.756 59.5058C168.115 59.0828 167.389 58.8713 166.577 58.8713C165.761 58.8713 165.033 59.0828 164.392 59.5058C163.751 59.9241 163.244 60.5419 162.87 61.3594C162.502 62.1722 162.317 63.1726 162.317 64.3608C162.317 65.5491 162.502 66.5519 162.87 67.3694C163.244 68.1821 163.751 68.8 164.392 69.223C165.033 69.6413 165.761 69.8504 166.577 69.8504C167.389 69.8504 168.115 69.6413 168.756 69.223C169.401 68.8 169.909 68.1821 170.277 67.3694C170.651 66.5519 170.838 65.5491 170.838 64.3608Z" fill="black"/>
<path d="M192.131 58.9568V57.0605H203.093V58.9568H198.674V71.6612H196.544V58.9568H192.131Z" fill="black"/>
<path d="M235.031 64.3608C235.031 65.9198 234.754 67.2601 234.201 68.3818C233.648 69.4987 232.889 70.3589 231.925 70.9626C230.966 71.5614 229.876 71.8608 228.654 71.8608C227.428 71.8608 226.333 71.5614 225.369 70.9626C224.41 70.3589 223.654 69.4963 223.101 68.3746C222.547 67.2529 222.271 65.915 222.271 64.3608C222.271 62.8019 222.547 61.464 223.101 60.3471C223.654 59.2254 224.41 58.3651 225.369 57.7663C226.333 57.1626 227.428 56.8608 228.654 56.8608C229.876 56.8608 230.966 57.1626 231.925 57.7663C232.889 58.3651 233.648 59.2254 234.201 60.3471C234.754 61.464 235.031 62.8019 235.031 64.3608ZM232.914 64.3608C232.914 63.1726 232.728 62.1722 232.354 61.3594C231.985 60.5419 231.478 59.9241 230.833 59.5058C230.192 59.0828 229.466 58.8713 228.654 58.8713C227.838 58.8713 227.11 59.0828 226.469 59.5058C225.828 59.9241 225.321 60.5419 224.947 61.3594C224.578 62.1722 224.394 63.1726 224.394 64.3608C224.394 65.5491 224.578 66.5519 224.947 67.3694C225.321 68.1821 225.828 68.8 226.469 69.223C227.11 69.6413 227.838 69.8504 228.654 69.8504C229.466 69.8504 230.192 69.6413 230.833 69.223C231.478 68.8 231.985 68.1821 232.354 67.3694C232.728 66.5519 232.914 65.5491 232.914 64.3608Z" fill="black"/>
<path d="M267.279 61.8086H265.122C265.039 61.3333 264.884 60.915 264.658 60.5538C264.432 60.1926 264.156 59.886 263.828 59.6341C263.501 59.3822 263.134 59.1921 262.729 59.0638C262.328 58.9355 261.901 58.8713 261.449 58.8713C260.633 58.8713 259.902 59.0828 259.257 59.5058C258.616 59.9288 258.109 60.5491 257.735 61.3665C257.366 62.184 257.182 63.1821 257.182 64.3608C257.182 65.5491 257.366 66.5519 257.735 67.3694C258.109 68.1869 258.618 68.8048 259.264 69.223C259.909 69.6413 260.635 69.8504 261.442 69.8504C261.89 69.8504 262.314 69.7886 262.715 69.665C263.121 69.5367 263.487 69.349 263.814 69.1018C264.142 68.8547 264.418 68.5529 264.644 68.1964C264.875 67.8352 265.034 67.4217 265.122 66.9559L267.279 66.963C267.164 67.6807 266.941 68.3414 266.609 68.945C266.281 69.5438 265.859 70.0619 265.343 70.4991C264.831 70.9317 264.246 71.2667 263.586 71.5044C262.927 71.742 262.208 71.8608 261.428 71.8608C260.202 71.8608 259.109 71.5614 258.15 70.9626C257.191 70.3589 256.435 69.4963 255.882 68.3746C255.333 67.2529 255.059 65.915 255.059 64.3608C255.059 62.8019 255.335 61.464 255.889 60.3471C256.442 59.2254 257.198 58.3651 258.157 57.7663C259.116 57.1626 260.207 56.8608 261.428 56.8608C262.18 56.8608 262.881 56.9725 263.531 57.1959C264.186 57.4145 264.774 57.7377 265.295 58.1655C265.816 58.5885 266.247 59.1066 266.588 59.7197C266.929 60.328 267.16 61.0243 267.279 61.8086Z" fill="black"/>
<path d="M299.96 64.3608C299.96 65.9198 299.684 67.2601 299.13 68.3818C298.577 69.4987 297.819 70.3589 296.855 70.9626C295.896 71.5614 294.806 71.8608 293.584 71.8608C292.357 71.8608 291.262 71.5614 290.299 70.9626C289.34 70.3589 288.583 69.4963 288.03 68.3746C287.477 67.2529 287.2 65.915 287.2 64.3608C287.2 62.8019 287.477 61.464 288.03 60.3471C288.583 59.2254 289.34 58.3651 290.299 57.7663C291.262 57.1626 292.357 56.8608 293.584 56.8608C294.806 56.8608 295.896 57.1626 296.855 57.7663C297.819 58.3651 298.577 59.2254 299.13 60.3471C299.684 61.464 299.96 62.8019 299.96 64.3608ZM297.844 64.3608C297.844 63.1726 297.657 62.1722 297.284 61.3594C296.915 60.5419 296.408 59.9241 295.762 59.5058C295.121 59.0828 294.395 58.8713 293.584 58.8713C292.768 58.8713 292.039 59.0828 291.398 59.5058C290.757 59.9241 290.25 60.5419 289.877 61.3594C289.508 62.1722 289.324 63.1726 289.324 64.3608C289.324 65.5491 289.508 66.5519 289.877 67.3694C290.25 68.1821 290.757 68.8 291.398 69.223C292.039 69.6413 292.768 69.8504 293.584 69.8504C294.395 69.8504 295.121 69.6413 295.762 69.223C296.408 68.8 296.915 68.1821 297.284 67.3694C297.657 66.5519 297.844 65.5491 297.844 64.3608Z" fill="black"/>
<path d="M320.445 71.6612V57.0605H322.582V69.7648H329V71.6612H320.445Z" fill="black"/>
<path d="M218.153 44.8608V8.49716H232.5C235.246 8.49716 237.59 8.9884 239.531 9.97088C241.484 10.9415 242.97 12.3205 243.988 14.108C245.017 15.8835 245.532 17.9728 245.532 20.3757C245.532 22.7905 245.012 24.8679 243.97 26.608C242.928 28.3362 241.419 29.6619 239.442 30.5852C237.477 31.5085 235.098 31.9702 232.304 31.9702H222.699V25.7912H231.061C232.529 25.7912 233.748 25.59 234.719 25.1875C235.69 24.785 236.412 24.1813 236.885 23.3764C237.371 22.5715 237.613 21.5713 237.613 20.3757C237.613 19.1683 237.371 18.1503 236.885 17.3217C236.412 16.4931 235.684 15.8658 234.701 15.4396C233.731 15.0017 232.506 14.7827 231.026 14.7827H225.841V44.8608H218.153ZM237.791 28.3125L246.828 44.8608H238.341L229.499 28.3125H237.791Z" fill="black"/>
<path d="M261.904 8.49716V44.8608H254.216V8.49716H261.904Z" fill="black"/>
<path d="M291.206 18.9553C291.064 17.523 290.454 16.4103 289.377 15.6172C288.3 14.8241 286.838 14.4276 284.991 14.4276C283.737 14.4276 282.677 14.6051 281.813 14.9602C280.949 15.3035 280.286 15.7829 279.824 16.3984C279.375 17.014 279.15 17.7124 279.15 18.4936C279.126 19.1447 279.262 19.7128 279.558 20.1982C279.866 20.6835 280.286 21.1037 280.819 21.4588C281.351 21.8021 281.967 22.1039 282.665 22.3643C283.364 22.6129 284.109 22.826 284.903 23.0036L288.17 23.7848C289.756 24.1399 291.212 24.6134 292.537 25.2053C293.863 25.7971 295.011 26.5251 295.982 27.3892C296.953 28.2533 297.704 29.2713 298.237 30.4432C298.782 31.6151 299.06 32.9586 299.072 34.4737C299.06 36.6991 298.492 38.6286 297.367 40.2621C296.254 41.8838 294.644 43.1444 292.537 44.044C290.442 44.9318 287.915 45.3757 284.956 45.3757C282.02 45.3757 279.463 44.9259 277.285 44.0263C275.119 43.1267 273.426 41.795 272.207 40.0312C271 38.2557 270.367 36.0599 270.307 33.4439H277.747C277.83 34.6631 278.179 35.6811 278.795 36.4979C279.422 37.3028 280.256 37.9124 281.298 38.3267C282.352 38.7292 283.541 38.9304 284.867 38.9304C286.169 38.9304 287.3 38.741 288.258 38.3622C289.229 37.9834 289.981 37.4567 290.513 36.782C291.046 36.1072 291.312 35.3319 291.312 34.456C291.312 33.6392 291.07 32.9527 290.584 32.3963C290.111 31.84 289.412 31.3665 288.489 30.9759C287.578 30.5852 286.459 30.2301 285.133 29.9105L281.174 28.9162C278.108 28.1705 275.687 27.0045 273.912 25.4183C272.136 23.8322 271.254 21.6955 271.266 19.0085C271.254 16.8068 271.84 14.8833 273.024 13.2379C274.22 11.5926 275.859 10.3082 277.942 9.38494C280.026 8.46165 282.393 8 285.045 8C287.743 8 290.099 8.46165 292.111 9.38494C294.135 10.3082 295.71 11.5926 296.834 13.2379C297.959 14.8833 298.539 16.7891 298.574 18.9553H291.206Z" fill="black"/>
<path d="M307.493 44.8608V8.49716H331.996V14.8359H315.181V23.5007H330.735V29.8395H315.181V38.522H332.067V44.8608H307.493Z" fill="black"/>
<path d="M109.53 45.3935C106.724 45.3935 104.31 44.8254 102.286 43.689C100.273 42.5408 98.7225 40.9191 97.6335 38.8239C96.5445 36.7169 96 34.2252 96 31.3488C96 28.5434 96.5445 26.0813 97.6335 23.9624C98.7225 21.8436 100.255 20.1923 102.232 19.0086C104.221 17.8249 106.553 17.233 109.228 17.233C111.027 17.233 112.702 17.523 114.253 18.1031C115.815 18.6712 117.177 19.5294 118.337 20.6776C119.509 21.8258 120.42 23.27 121.071 25.01C121.722 26.7382 122.048 28.7624 122.048 31.0825V33.1599H99.0185V28.4724H114.928C114.928 27.3834 114.691 26.4186 114.217 25.5782C113.744 24.7378 113.087 24.0808 112.246 23.6073C111.418 23.122 110.453 22.8793 109.352 22.8793C108.204 22.8793 107.186 23.1457 106.298 23.6783C105.422 24.1992 104.736 24.9035 104.239 25.7913C103.741 26.6672 103.487 27.6438 103.475 28.7209V33.1776C103.475 34.5271 103.724 35.693 104.221 36.6755C104.73 37.658 105.446 38.4155 106.369 38.9482C107.293 39.4809 108.388 39.7472 109.654 39.7472C110.495 39.7472 111.264 39.6289 111.962 39.3921C112.661 39.1554 113.259 38.8003 113.756 38.3268C114.253 37.8533 114.632 37.2733 114.892 36.5867L121.888 37.0484C121.533 38.7292 120.805 40.197 119.704 41.4518C118.615 42.6947 117.206 43.6653 115.478 44.3637C113.762 45.0503 111.779 45.3935 109.53 45.3935Z" fill="black"/>
<path d="M154.927 17.5881L145.393 44.8609H136.87L127.335 17.5881H135.325L140.989 37.1016H141.273L146.92 17.5881H154.927Z" fill="black"/>
<path d="M173.598 45.3935C170.793 45.3935 168.378 44.8254 166.354 43.689C164.342 42.5408 162.791 40.9191 161.702 38.8239C160.613 36.7169 160.068 34.2252 160.068 31.3488C160.068 28.5434 160.613 26.0813 161.702 23.9624C162.791 21.8436 164.324 20.1923 166.301 19.0086C168.289 17.8249 170.621 17.233 173.296 17.233C175.096 17.233 176.771 17.523 178.321 18.1031C179.884 18.6712 181.245 19.5294 182.405 20.6776C183.577 21.8258 184.488 23.27 185.139 25.01C185.79 26.7382 186.116 28.7624 186.116 31.0825V33.1599H163.087V28.4724H178.996C178.996 27.3834 178.759 26.4186 178.286 25.5782C177.812 24.7378 177.155 24.0808 176.315 23.6073C175.486 23.122 174.521 22.8793 173.421 22.8793C172.272 22.8793 171.254 23.1457 170.367 23.6783C169.491 24.1992 168.804 24.9035 168.307 25.7913C167.81 26.6672 167.555 27.6438 167.544 28.7209V33.1776C167.544 34.5271 167.792 35.693 168.289 36.6755C168.798 37.658 169.514 38.4155 170.438 38.9482C171.361 39.4809 172.456 39.7472 173.722 39.7472C174.563 39.7472 175.332 39.6289 176.031 39.3921C176.729 39.1554 177.327 38.8003 177.824 38.3268C178.321 37.8533 178.7 37.2733 178.96 36.5867L185.956 37.0484C185.601 38.7292 184.873 40.197 183.772 41.4518C182.683 42.6947 181.275 43.6653 179.546 44.3637C177.83 45.0503 175.847 45.3935 173.598 45.3935Z" fill="black"/>
<path d="M194.302 44.8609V17.5881H201.635V22.3467H201.919C202.416 20.6539 203.251 19.3755 204.423 18.5114C205.595 17.6355 206.944 17.1975 208.471 17.1975C208.85 17.1975 209.258 17.2212 209.696 17.2685C210.134 17.3159 210.519 17.381 210.85 17.4638V24.1755C210.495 24.069 210.004 23.9743 209.377 23.8914C208.749 23.8085 208.175 23.7671 207.654 23.7671C206.542 23.7671 205.547 24.0098 204.671 24.4951C203.807 24.9686 203.121 25.6315 202.612 26.4837C202.115 27.336 201.866 28.3185 201.866 29.4312V44.8609H194.302Z" fill="black"/>
</svg>
